<?xml version="1.0" encoding="UTF-8" standalone="no"?>
<!-- Created with Inkscape (http://www.inkscape.org/) -->
<svg xmlns:dc="http://purl.org/dc/elements/1.1/" xmlns:cc="http://creativecommons.org/ns#" xmlns:rdf="http://www.w3.org/1999/02/22-rdf-syntax-ns#" xmlns:svg="http://www.w3.org/2000/svg" xmlns="http://www.w3.org/2000/svg" xmlns:xlink="http://www.w3.org/1999/xlink" xmlns:sodipodi="http://sodipodi.sourceforge.net/DTD/sodipodi-0.dtd" xmlns:inkscape="http://www.inkscape.org/namespaces/inkscape" width="210mm" height="297mm" viewBox="0 0 210 297" version="1.1" id="svg1445" inkscape:version="0.92.3 (2405546, 2018-03-11)" sodipodi:docname="P04204056.svg">
  <defs id="defs1439"/>
  <sodipodi:namedview id="base" pagecolor="#ffffff" bordercolor="#666666" borderopacity="1.0" inkscape:pageopacity="0.0" inkscape:pageshadow="2" inkscape:zoom="0.35" inkscape:cx="359.39797" inkscape:cy="560" inkscape:document-units="mm" inkscape:current-layer="layer1" showgrid="false" inkscape:window-width="1352" inkscape:window-height="959" inkscape:window-x="58" inkscape:window-y="33" inkscape:window-maximized="0"/>
  <metadata id="metadata1442">
    <rdf:RDF>
      <cc:Work rdf:about="">
        <dc:format>image/svg+xml</dc:format>
        <dc:type rdf:resource="http://purl.org/dc/dcmitype/StillImage"/>
        <dc:title/>
      </cc:Work>
    </rdf:RDF>
  </metadata>
  <g inkscape:groupmode="layer" id="layer4" inkscape:label="trace" style="display:inline">
    <path style="fill:#000000;stroke:none;stroke-width:5;stroke-linecap:butt;stroke-linejoin:miter;stroke-miterlimit:4;stroke-dasharray:none;stroke-opacity:1" d="m 313.72024,-105.92263 -10.58334,6.803576 -7.55951,5.291667 -6.80358,9.827379 -6.04763,9.07143 -4.5357,9.071427 -4.53573,9.827382 -3.02381,9.827381 -1.51188,9.071428 v 6.803572 l 1.51188,7.559523 c 0,0 1.96627,6.822483 3.77978,9.827381 1.38407,2.293337 3.58675,3.9816294 5.29167,6.0476186 1.82867,2.2159528 5.29167,6.80357129 5.29167,6.80357129 l 8.31545,8.31547611 6.80358,6.047619 8.31548,6.803571 11.33928,9.071427 7.55954,6.047621 10.58333,9.071428 9.82737,9.827381 7.55951,9.071428 9.8274,12.095239 6.0476,9.827381 6.80358,11.339285 6.80357,12.851188 6.04764,12.85119 5.29166,12.85119 5.29167,15.11905 c 0,0 2.1282,9.45765 3.02381,12.85119 1.3004,4.92735 2.26785,17.38691 2.26785,17.38691 0,0 -0.43638,10.41872 -1.51191,16.63094 -0.72059,4.16211 -3.02381,14.3631 -3.02381,14.3631 l -4.53572,13.60714 -4.53571,8.31548 -5.29166,8.31548 -9.07142,12.09523 -9.07143,12.09523 -11.3393,12.85121 -14.36309,15.875 -14.36309,13.60713 -12.85119,11.3393 -12.8512,10.58333 -13.60713,9.82737 -15.875,9.07145 -12.8512,7.55951 -16.63095,7.55952 -17.38691,8.31548 -18.14285,6.80358 -18.14286,6.80357 -24.19048,7.55952 -15.875,4.5357 -22.67857,3.77978 -18.89881,2.26785 -18.898806,0.75594 -24.190476,-0.75594 -27.214284,-1.51191 -24.946429,-2.26785 -22.678571,-3.77975 -22.678572,-4.53573 -21.922618,-8.31548 -21.166666,-9.82737 -17.386906,-9.82739 -22.678572,-15.875 L -127,338.57737 l -11.33928,-10.58334 -16.63096,-17.38691 -11.33928,-12.85118 -12.09524,-14.36309 -8.31548,-10.58333 -9.82738,-15.11906 -7.55952,-14.3631 -7.55952,-16.63094 -3.77976,-15.875 -1.51191,-15.875 -0.75595,-18.14286 3.02381,-17.3869 3.77976,-13.60715 6.04762,-16.63095 6.04762,-15.11905 8.31547,-18.142854 12.09524,-19.65476 13.60714,-17.386906 13.60715,-12.851191 13.60714,-12.095236 15.875,-12.095238 16.63095,-12.8511906 7.559524,-7.5595238 c 0,0 4.446998,-5.2848369 6.047618,-8.315476 1.749438,-3.3124136 3.779763,-10.5833336 3.779763,-10.5833336 0,0 1.006505,-5.543521 0.755952,-8.315476 -0.423772,-4.688339 -3.779761,-13.607143 -3.779761,-13.607143 l -4.535715,-10.583333 -7.559521,-13.607142 -5.29167,-9.071428 -6.04762,-6.047621 -6.04762,-3.77976 -6.80357,-3.779764 -7.55952,-6.047618" id="path1459" inkscape:connector-curvature="0" sodipodi:nodetypes="cccccccccccssccccccccccccccccscsscscccccccccccccccccccccccccccccccccccccccccccccccccccccscscccccccc" inkscape:export-xdpi="96" inkscape:export-ydpi="96"/>
  </g>
</svg>
