<?xml version="1.0" encoding="UTF-8" standalone="no"?>
<!-- Created with Inkscape (http://www.inkscape.org/) -->
<svg xmlns:dc="http://purl.org/dc/elements/1.1/" xmlns:cc="http://creativecommons.org/ns#" xmlns:rdf="http://www.w3.org/1999/02/22-rdf-syntax-ns#" xmlns:svg="http://www.w3.org/2000/svg" xmlns="http://www.w3.org/2000/svg" xmlns:xlink="http://www.w3.org/1999/xlink" xmlns:sodipodi="http://sodipodi.sourceforge.net/DTD/sodipodi-0.dtd" xmlns:inkscape="http://www.inkscape.org/namespaces/inkscape" width="210mm" height="297mm" viewBox="0 0 210 297" version="1.1" id="svg961" inkscape:version="0.92.3 (2405546, 2018-03-11)" sodipodi:docname="P06308112.svg">
  <defs id="defs955"/>
  <sodipodi:namedview id="base" pagecolor="#ffffff" bordercolor="#666666" borderopacity="1.0" inkscape:pageopacity="0.0" inkscape:pageshadow="2" inkscape:zoom="0.35" inkscape:cx="400" inkscape:cy="766.50144" inkscape:document-units="mm" inkscape:current-layer="layer6" showgrid="false" inkscape:window-width="1381" inkscape:window-height="947" inkscape:window-x="50" inkscape:window-y="37" inkscape:window-maximized="0"/>
  <metadata id="metadata958">
    <rdf:RDF>
      <cc:Work rdf:about="">
        <dc:format>image/svg+xml</dc:format>
        <dc:type rdf:resource="http://purl.org/dc/dcmitype/StillImage"/>
        <dc:title/>
      </cc:Work>
    </rdf:RDF>
  </metadata>
  <g inkscape:groupmode="layer" id="layer6" inkscape:label="trace">
    <path style="fill:#000000;stroke:none;stroke-width:5;stroke-linecap:butt;stroke-linejoin:miter;stroke-miterlimit:4;stroke-dasharray:none;stroke-opacity:1" d="m 350.00594,-136.91667 -16.63095,21.92261 c 0,2.2334 -15.2671,18.920445 -18.8988,30.238101 -1.23428,3.846431 -1.50738,8.126128 -0.75595,12.095238 0.77588,4.098281 5.29166,11.339285 5.29166,11.339285 l 6.80358,13.607142 9.82737,19.654761 6.80357,15.119049 5.29167,16.6309518 5.29166,18.8988092 6.04764,27.214286 2.26785,19.65476 1.51191,21.922619 -2.26788,21.166668 -2.26785,15.11905 -5.29167,22.67857 -6.80357,19.65476 -8.31546,17.3869 -11.3393,16.63096 -15.11903,18.14285 -12.85121,11.33929 -15.875,14.36309 -15.11902,11.33929 -17.38692,9.82739 -17.38691,7.55951 -19.65476,8.31549 -24.94643,6.04761 -24.19048,5.29166 -27.21428,2.26785 -21.16667,0.75597 L 94.49404,298.51188 67.27975,296.24403 43.08927,290.95236 18.14284,284.90475 -5.2380952e-6,278.85713 -19.654772,270.54165 l -18.142868,-9.07143 -16.630929,-11.33927 -16.630953,-12.09524 -12.85121,-12.8512 -13.607135,-17.3869 -11.339293,-18.14287 -9.82736,-17.38688 -7.55952,-19.65476 -6.04764,-19.65477 -3.77974,-20.41072 -0.75598,-21.92262 1.51191,-21.16667 3.0238,-21.922617 5.29169,-24.190481 6.80357,-18.8988096 7.55952,-18.1428544 6.04761,-16.630955 6.04762,-17.386905 c 2.267862,-4.535713 5.18323,-12.34125 6.04762,-18.898808 0.692327,-5.252229 0.747907,-10.795268 -0.755945,-15.874997 -1.987481,-6.713336 -10.583345,-18.142863 -10.583345,-18.142863 l -14.36309,-18.8988 -15.65672,-17.93122" id="path975" inkscape:connector-curvature="0" sodipodi:nodetypes="ccaaccccccccccccccccccccccccccccccccccccccccccccccccccaaccc" inkscape:export-xdpi="96" inkscape:export-ydpi="96"/>
  </g>
</svg>
