<?xml version="1.0" encoding="UTF-8" standalone="no"?>
<!-- Created with Inkscape (http://www.inkscape.org/) -->
<svg xmlns:dc="http://purl.org/dc/elements/1.1/" xmlns:cc="http://creativecommons.org/ns#" xmlns:rdf="http://www.w3.org/1999/02/22-rdf-syntax-ns#" xmlns:svg="http://www.w3.org/2000/svg" xmlns="http://www.w3.org/2000/svg" xmlns:xlink="http://www.w3.org/1999/xlink" xmlns:sodipodi="http://sodipodi.sourceforge.net/DTD/sodipodi-0.dtd" xmlns:inkscape="http://www.inkscape.org/namespaces/inkscape" width="210mm" height="297mm" viewBox="0 0 210 297" version="1.1" id="svg8" inkscape:version="0.92.3 (2405546, 2018-03-11)" sodipodi:docname="P05110375.svg" inkscape:export-filename="D:\UW\2017_fifth\UW 2018SP\Pottery outline\P05110375.png" inkscape:export-xdpi="96" inkscape:export-ydpi="96">
  <defs id="defs2"/>
  <sodipodi:namedview id="base" pagecolor="#ffffff" bordercolor="#666666" borderopacity="1.0" inkscape:pageopacity="0.0" inkscape:pageshadow="2" inkscape:zoom="0.35" inkscape:cx="-75.714286" inkscape:cy="560" inkscape:document-units="mm" inkscape:current-layer="layer1" showgrid="false" inkscape:window-width="1420" inkscape:window-height="1008" inkscape:window-x="68" inkscape:window-y="0" inkscape:window-maximized="0"/>
  <metadata id="metadata5">
    <rdf:RDF>
      <cc:Work rdf:about="">
        <dc:format>image/svg+xml</dc:format>
        <dc:type rdf:resource="http://purl.org/dc/dcmitype/StillImage"/>
        <dc:title/>
      </cc:Work>
    </rdf:RDF>
  </metadata>
  <g inkscape:groupmode="layer" id="layer2" inkscape:label="trace">
    <path style="fill:#000000;stroke:none;stroke-width:5;stroke-linecap:butt;stroke-linejoin:miter;stroke-miterlimit:4;stroke-dasharray:none;stroke-opacity:1" d="m 201.08333,-158.83928 -6.80357,7.55952 -1.5119,0.75595 -10.58334,30.99405 -10.58333,26.458332 -2.26786,5.291667 -0.75595,4.535715 v 5.291667 l 2.26786,6.803569 3.02381,6.803573 3.02381,3.779761 c 0,0 3.92555,4.093533 5.29166,5.291668 2.01384,1.766216 2.60035,1.927896 4.53572,3.779762 4.66311,4.461921 15.11904,12.095236 15.11904,12.095236 l 6.80357,6.047621 9.82739,12.095237 9.82738,18.8988092 v 0 l 6.80357,14.3630948 9.07143,20.410716 7.55952,16.630951 9.82738,24.190476 c 0,0 5.05263,12.926643 6.80357,18.898808 1.80744,6.164865 3.02206,11.143407 4.53571,17.386907 0.86445,3.56566 2.26786,12.09524 2.26786,12.09524 l 3.02382,13.60714 1.51191,15.875 1.5119,17.38691 0.0189,20.6186 -2.28678,24.73854 -3.02381,15.875 c 0,0 -3.30086,12.88182 -6.04761,18.8988 -2.81759,6.17218 -10.58333,17.38691 -10.58333,17.38691 0,0 -9.08463,13.49172 -14.3631,19.65477 -4.63621,5.41316 -15.11905,15.11904 -15.11905,15.11904 l -19.65476,15.11904 -21.92262,13.60715 -28.72619,14.36308 -25.70238,9.82739 -24.94643,8.31549 -28.726188,6.80356 -27.970237,4.53571 -35.529763,3.77976 -24.1904756,1.5119 -18.1428574,0.75597 -18.14286,-0.75596 -24.19048,-1.51191 -35.529759,-3.77976 -27.97023,-4.5357 -28.72619,-6.80357 -24.94643,-8.31549 -25.70238,-9.82739 -28.72619,-14.36307 -21.92262,-13.60715 -19.65476,-15.11905 -15.11906,-15.11904 -14.36309,-19.65476 c 0,0 -7.76574,-11.21475 -10.58334,-17.38693 -2.74675,-6.01698 -6.0476,-18.89879 -6.0476,-18.89879 l -3.02382,-15.875 -2.28677,-24.73854 0.0189,-19.86265 1.5119,-18.89882 1.51191,-15.11905 3.02382,-13.60712 3.02381,-10.58334 4.53571,-18.142868 6.04763,-18.142852 9.82739,-25.702384 7.55952,-16.63095 9.07142,-20.41072 6.80357,-14.36309 4.53572,-10.58334 5.29166,-8.31547 9.82739,-12.09524 6.80357,-6.04762 15.11904,-12.09524 v 0 l 9.82738,-9.071426 3.02381,-3.77976 3.02381,-6.803576 2.26786,-6.803567 v -5.291667 l -0.75595,-4.535715 -2.26786,-5.291669 -6.04762,-17.386906 -6.80357,-15.11905 -8.31548,-19.65476 -9.07143,-12.09524" id="path827" inkscape:connector-curvature="0" sodipodi:nodetypes="cccccccccccsscccccccccsscccccccscscccccccccccccccccccccccsccccccccccccccccccccccccccccccc" inkscape:export-xdpi="96" inkscape:export-ydpi="96"/>
  </g>
</svg>
