<?xml version="1.0" encoding="UTF-8" standalone="no"?>
<!-- Created with Inkscape (http://www.inkscape.org/) -->
<svg xmlns:dc="http://purl.org/dc/elements/1.1/" xmlns:cc="http://creativecommons.org/ns#" xmlns:rdf="http://www.w3.org/1999/02/22-rdf-syntax-ns#" xmlns:svg="http://www.w3.org/2000/svg" xmlns="http://www.w3.org/2000/svg" xmlns:xlink="http://www.w3.org/1999/xlink" xmlns:sodipodi="http://sodipodi.sourceforge.net/DTD/sodipodi-0.dtd" xmlns:inkscape="http://www.inkscape.org/namespaces/inkscape" width="210mm" height="297mm" viewBox="0 0 210 297" version="1.1" id="svg8" inkscape:version="0.92.3 (2405546, 2018-03-11)" sodipodi:docname="P05105001.svg">
  <defs id="defs2"/>
  <sodipodi:namedview id="base" pagecolor="#ffffff" bordercolor="#666666" borderopacity="1.0" inkscape:pageopacity="0.0" inkscape:pageshadow="2" inkscape:zoom="0.35" inkscape:cx="-231.42857" inkscape:cy="560" inkscape:document-units="mm" inkscape:current-layer="layer2" showgrid="false" inkscape:window-width="1379" inkscape:window-height="956" inkscape:window-x="59" inkscape:window-y="34" inkscape:window-maximized="0"/>
  <metadata id="metadata5">
    <rdf:RDF>
      <cc:Work rdf:about="">
        <dc:format>image/svg+xml</dc:format>
        <dc:type rdf:resource="http://purl.org/dc/dcmitype/StillImage"/>
        <dc:title/>
      </cc:Work>
    </rdf:RDF>
  </metadata>
  <g inkscape:groupmode="layer" id="layer2" inkscape:label="trace">
    <path style="fill:#000000;stroke:none;stroke-width:5;stroke-linecap:butt;stroke-linejoin:miter;stroke-miterlimit:4;stroke-dasharray:none;stroke-opacity:1" d="m -245.6845,-102.14287 8.31546,14.363103 9.07143,21.166667 7.55952,18.89881 c 0,0 3.83119,10.343916 2.26785,16.630953 -1.37858,5.544042 -11.33926,12.851184 -11.33926,12.851184 l -16.63097,10.583343 v 0 l -13.60714,9.0714276 -19.65476,12.0952424 -18.14285,12.095234 -15.875,13.607146 v 0 c 0,0 -10.55635,12.797192 -14.36311,20.410705 l -6.80358,15.875 -7.55952,16.63096 -5.29167,18.898815 c 0,0 1.70576,-8.65151 -3.77975,15.11904 -5.48552,23.77055 -3.51145,61.52498 4.5357,81.64285 16.56879,49.25827 39.44381,76.58906 53.67263,88.44645 l 16.63096,12.09523 21.16667,14.3631 17.3869,9.07142 18.89881,9.07143 24.94643,9.07143 21.16667,6.04762 28.72619,6.0476 23.43451,3.77976 23.434528,3.77977 24.946428,1.51192 16.63095,1.51191 18.89881,0.75594 16.63095,0.75596 16.6309522,-0.75597 18.8988088,-0.75594 16.630953,-1.51191 25.702381,-3.02381 23.434524,-3.02382 21.922615,-3.77976 28.72619,-7.55952 25.70238,-7.55951 20.41072,-8.31549 18.89881,-9.07142 12.85119,-7.55952 12.85119,-6.80357 12.09524,-9.07143 9.07142,-7.55954 11.33929,-9.07142 9.07143,-9.07143 9.07143,-11.33927 12.09525,-18.14287 7.55951,-17.38691 6.80358,-18.14285 3.02379,-14.3631 3.02381,-18.14285 1.51191,-13.60715 -0.75594,-17.3869 -0.75597,-9.07143 L 303.1369,122.375 301.625,112.54762 297.84524,93.648809 292.55357,77.017855 285.75,61.142855 281.21427,52.071428 272.89881,39.220237 265.33927,30.14881 255.5119,21.077381 241.14881,10.494047 226.02976,2.1785714 205.61905,-7.6488093 185.96428,-17.47619 179.91666,-20.5 c 0,0 -2.06404,-2.903057 -3.0238,-5.291666 -0.95976,-2.388609 -2.26786,-9.071429 -2.26786,-9.071429 v -8.315476 l 3.02381,-10.583333 21.92261,-52.160716" id="path827-2" inkscape:connector-curvature="0" sodipodi:nodetypes="ccccscccccccccccczcccccccccccccccccccccccccccccccccccccccccccccccccccczczcccc" inkscape:export-xdpi="96" inkscape:export-ydpi="96"/>
  </g>
</svg>
