<?xml version="1.0" encoding="UTF-8" standalone="no"?>
<!-- Created with Inkscape (http://www.inkscape.org/) -->
<svg xmlns:dc="http://purl.org/dc/elements/1.1/" xmlns:cc="http://creativecommons.org/ns#" xmlns:rdf="http://www.w3.org/1999/02/22-rdf-syntax-ns#" xmlns:svg="http://www.w3.org/2000/svg" xmlns="http://www.w3.org/2000/svg" xmlns:xlink="http://www.w3.org/1999/xlink" xmlns:sodipodi="http://sodipodi.sourceforge.net/DTD/sodipodi-0.dtd" xmlns:inkscape="http://www.inkscape.org/namespaces/inkscape" width="210mm" height="297mm" viewBox="0 0 210 297" version="1.1" id="svg8" inkscape:version="0.92.3 (2405546, 2018-03-11)" sodipodi:docname="P04202180.svg">
  <defs id="defs2"/>
  <sodipodi:namedview id="base" pagecolor="#ffffff" bordercolor="#666666" borderopacity="1.0" inkscape:pageopacity="0.0" inkscape:pageshadow="2" inkscape:zoom="0.35" inkscape:cx="176.58214" inkscape:cy="579.35424" inkscape:document-units="mm" inkscape:current-layer="layer1" showgrid="false" inkscape:window-width="1307" inkscape:window-height="1008" inkscape:window-x="68" inkscape:window-y="0" inkscape:window-maximized="0"/>
  <metadata id="metadata5">
    <rdf:RDF>
      <cc:Work rdf:about="">
        <dc:format>image/svg+xml</dc:format>
        <dc:type rdf:resource="http://purl.org/dc/dcmitype/StillImage"/>
        <dc:title/>
      </cc:Work>
    </rdf:RDF>
  </metadata>
  <g inkscape:groupmode="layer" id="layer2" inkscape:label="trace" style="display:inline">
    <path style="fill:#000000;stroke:none;stroke-width:5;stroke-linecap:butt;stroke-linejoin:miter;stroke-miterlimit:4;stroke-dasharray:none;stroke-opacity:1" d="m 288.01785,-158.83928 -6.04761,12.09523 -6.04764,14.3631 -4.53569,14.3631 -5.29169,19.654757 c 0,0 -7.82731,29.601288 -4.53571,34.773807 l 5.29167,8.315476 12.09525,14.363096 c 4.82588,5.730729 0.45382,1.03631 0.75596,1.511904 3.27097,5.148724 11.33927,14.363096 11.33927,14.363096 l 12.85119,19.6547616 9.82739,19.6547614 7.55951,21.166668 7.55952,26.458333 3.77978,18.142857 4.5357,25.702383 1.51191,17.3869 1.51191,17.3869 -1.51191,22.67858 -3.77976,28.72619 -8.31548,27.21428 -7.55952,22.67857 -12.09524,24.94644 -16.63094,23.43452 -15.875,21.9226 -18.14287,20.41073 -21.92261,19.65476 -22.67858,19.65475 -20.41071,17.38691 -24.94643,18.14285 -19.65476,13.60715 -24.94643,9.82739 -27.970237,6.04761 -20.410712,2.26785 -14.363097,0.75597 -26.458333,-3.02382 -24.9464272,-6.04761 -22.6785708,-8.31548 -21.166668,-12.09524 -15.874999,-11.33928 -19.654761,-15.11905 -15.875,-12.85119 -17.386905,-14.36309 -17.3869,-15.875 -13.60715,-13.60714 -16.63095,-18.14286 -12.85119,-15.11906 -9.82738,-12.85118 -10.58333,-18.14286 -8.31548,-18.14286 -6.80357,-19.65476 -6.04762,-23.43453 -4.53571,-20.41071 -3.77977,-21.16666 1e-5,-24.19048 0.75594,-21.92262 2.26786,-24.190474 4.53572,-24.190477 6.04762,-27.214283 6.80357,-21.922619 7.55952,-18.1428574 10.58333,-17.3869046 12.09524,-14.363096 12.09525,-15.119047 c 2.95752,-3.696909 6.80357,-15.875 6.80357,-15.875 l -1.83672,-17.771174 c 0,0 -2.35202,-18.469658 -3.0238,-21.922618 l -3.45496,-17.75859 -5.29167,-15.11904 v 0 l -8.31548,-18.14286" id="path827" inkscape:connector-curvature="0" sodipodi:nodetypes="cccccscssccccccccccccccccccccccccccccccccccccccccccccccccccccccsccscccc" inkscape:export-xdpi="96" inkscape:export-ydpi="96"/>
  </g>
</svg>
