<?xml version="1.0" encoding="UTF-8" standalone="no"?>
<!-- Created with Inkscape (http://www.inkscape.org/) -->
<svg xmlns:dc="http://purl.org/dc/elements/1.1/" xmlns:cc="http://creativecommons.org/ns#" xmlns:rdf="http://www.w3.org/1999/02/22-rdf-syntax-ns#" xmlns:svg="http://www.w3.org/2000/svg" xmlns="http://www.w3.org/2000/svg" xmlns:xlink="http://www.w3.org/1999/xlink" xmlns:sodipodi="http://sodipodi.sourceforge.net/DTD/sodipodi-0.dtd" xmlns:inkscape="http://www.inkscape.org/namespaces/inkscape" width="210mm" height="297mm" viewBox="0 0 210 297" version="1.1" id="svg8" inkscape:version="0.92.3 (2405546, 2018-03-11)" sodipodi:docname="P05111309.svg" inkscape:export-filename="D:\UW\2017_fifth\UW 2018SP\Pottery outline\P05111309.png" inkscape:export-xdpi="96" inkscape:export-ydpi="96">
  <defs id="defs2"/>
  <sodipodi:namedview id="base" pagecolor="#ffffff" bordercolor="#666666" borderopacity="1.0" inkscape:pageopacity="0.0" inkscape:pageshadow="2" inkscape:zoom="0.35" inkscape:cx="-73.114286" inkscape:cy="534.07853" inkscape:document-units="mm" inkscape:current-layer="layer2" showgrid="false" inkscape:window-width="1334" inkscape:window-height="937" inkscape:window-x="84" inkscape:window-y="63" inkscape:window-maximized="0"/>
  <metadata id="metadata5">
    <rdf:RDF>
      <cc:Work rdf:about="">
        <dc:format>image/svg+xml</dc:format>
        <dc:type rdf:resource="http://purl.org/dc/dcmitype/StillImage"/>
        <dc:title/>
      </cc:Work>
    </rdf:RDF>
  </metadata>
  <g inkscape:groupmode="layer" id="layer2" inkscape:label="trace">
    <path style="fill:#000000;stroke:none;stroke-width:5;stroke-linecap:butt;stroke-linejoin:miter;stroke-miterlimit:4;stroke-dasharray:none;stroke-opacity:1" d="m 213.17857,-114.99405 -6.04762,6.80357 -1.5119,0.75596 -3.02381,6.80357 -6.80358,15.119046 -6.80357,18.142858 -4.53571,12.85119 -3.77976,10.583334 -1.51191,4.535712 v 3.779763 4.535715 l 4.53572,8.315475 9.07143,15.1190477 9.07142,15.1190474 9.07143,15.8749999 9.82738,16.630951 9.82738,18.898812 8.31548,18.898808 6.80357,15.875 6.80357,21.922621 5.29167,16.63095 6.04762,20.41071 5.29168,21.92262 2.26785,12.09524 2.26784,16.63095 1.51191,17.38691 v 15.875 l -1.51191,14.36309 -3.02381,15.11904 c 0,0 -2.77159,11.38763 -5.29167,16.63097 -2.75499,5.7321 -10.58332,15.875 -10.58332,15.875 l -12.09524,15.875 -15.875,15.11903 c 0,0 -9.82382,9.37257 -15.11905,13.60715 -5.78793,4.62859 -18.14285,12.85118 -18.14285,12.85118 l -21.92262,13.60715 -18.14286,9.8274 -18.89881,8.31545 -18.89881,7.55955 -21.922617,8.31545 -24.190476,6.80358 -18.898808,4.53572 -20.410715,3.02379 -20.4107132,2.26788 -15.1190474,1.51191 -22.6785724,0.75594 v -1.13391 1.13391 l -18.142856,2e-5 -21.922622,-1.51189 -18.142852,-2.26792 -20.410721,-4.53566 -18.89881,-4.53573 -24.19047,-6.80357 -21.92262,-8.31546 -18.89881,-7.55954 -18.89881,-8.31546 -18.14286,-9.82742 -21.92262,-13.60712 -18.14285,-12.85119 -15.11905,-13.60715 c 0,0 -10.99948,-9.67574 -15.87499,-15.11903 -4.43853,-4.95542 -12.09524,-15.875 -12.09524,-15.875 0,0 -7.82835,-10.1429 -10.58334,-15.875 -2.52008,-5.24334 -5.29166,-16.63097 -5.29166,-16.63097 l -3.02382,-15.11905 -1.51191,-14.3631 v -15.875 l 1.51191,-17.3869 2.26785,-16.63095 2.26785,-12.09524 5.29166,-21.92261 6.04764,-20.41072 5.29167,-16.63095 6.80357,-21.92262 6.80358,-15.875 8.31547,-18.89881 9.82738,-18.89881 9.82738,-16.630949 9.07143,-15.875 9.07142,-15.11905 9.07143,-15.119047 4.53572,-8.315473 v -4.535715 -3.779764 l -1.51191,-4.535712 -3.77976,-10.583334 -4.53571,-12.85119 -6.80357,-18.142858 -6.80358,-15.119048 -3.02381,-6.80357 -1.5119,-0.75596 -6.04762,-6.80357" id="path827" inkscape:connector-curvature="0" sodipodi:nodetypes="cccccccccccccccccccccccccccccscccscccccccccccccccccccccccccccscsccccccccccccccccccccccccccccc" inkscape:export-xdpi="96" inkscape:export-ydpi="96"/>
  </g>
</svg>
