<?xml version="1.0" encoding="UTF-8" standalone="no"?>
<!-- Created with Inkscape (http://www.inkscape.org/) -->
<svg xmlns:dc="http://purl.org/dc/elements/1.1/" xmlns:cc="http://creativecommons.org/ns#" xmlns:rdf="http://www.w3.org/1999/02/22-rdf-syntax-ns#" xmlns:svg="http://www.w3.org/2000/svg" xmlns="http://www.w3.org/2000/svg" xmlns:xlink="http://www.w3.org/1999/xlink" xmlns:sodipodi="http://sodipodi.sourceforge.net/DTD/sodipodi-0.dtd" xmlns:inkscape="http://www.inkscape.org/namespaces/inkscape" width="210mm" height="297mm" viewBox="0 0 210 297" version="1.1" id="svg850" inkscape:version="0.92.3 (2405546, 2018-03-11)" sodipodi:docname="P05309221.svg">
  <defs id="defs844"/>
  <sodipodi:namedview id="base" pagecolor="#ffffff" bordercolor="#666666" borderopacity="1.0" inkscape:pageopacity="0.0" inkscape:pageshadow="2" inkscape:zoom="0.35" inkscape:cx="390.78139" inkscape:cy="560" inkscape:document-units="mm" inkscape:current-layer="layer2" showgrid="false" inkscape:window-width="1454" inkscape:window-height="945" inkscape:window-x="64" inkscape:window-y="44" inkscape:window-maximized="0"/>
  <metadata id="metadata847">
    <rdf:RDF>
      <cc:Work rdf:about="">
        <dc:format>image/svg+xml</dc:format>
        <dc:type rdf:resource="http://purl.org/dc/dcmitype/StillImage"/>
        <dc:title/>
      </cc:Work>
    </rdf:RDF>
  </metadata>
  <g inkscape:groupmode="layer" id="layer2" inkscape:label="trace">
    <path style="fill:#000000;stroke:none;stroke-width:5;stroke-linecap:butt;stroke-linejoin:miter;stroke-miterlimit:4;stroke-dasharray:none;stroke-opacity:1" d="m -180.67263,-114.23809 18.89883,12.09524 9.82736,20.410714 12.85121,32.505955 c 6.52277,14.698331 8.11276,21.183634 7.55952,29.482145 0,0 -2.29184,8.383684 -4.53572,13.6071416 -2.1516,5.0086659 -13.60715,21.1666594 -13.60715,21.1666594 l -9.82738,13.607143 -12.8512,18.898816 -12.09523,21.166659 -9.82738,18.142858 -9.07143,19.654769 -8.31547,19.65476 -5.29167,18.89881 -4.53572,23.43453 c 0,0 -2.63184,12.53113 -3.02381,18.8988 -0.43376,7.04672 0.75596,21.16668 0.75596,21.16668 l 3.77977,18.89879 c 0,0 3.86281,12.3579 6.80356,18.89883 3.10154,6.89857 11.3393,21.16664 11.3393,21.16664 l 11.33928,15.875 15.11905,18.89881 19.65475,18.14285 c 0,0 11.45418,9.33295 16.63095,12.8512 6.15425,4.18256 17.38691,9.8274 17.38691,9.8274 l 17.38691,7.5595 24.190489,9.07143 25.702361,8.31548 23.43453,6.04763 26.45833,6.80355 21.92262,5.29167 19.65476,4.53573 18.14286,2.26785 19.65476,1.5119 19.65476,0.75597 h 11.33929 11.33929 l 19.65476,-0.75597 19.65476,-1.51191 18.14286,-2.26785 23.43452,-5.29168 20.41072,-4.53571 23.43452,-6.0476 24.19048,-6.80358 25.70236,-8.31549 24.19049,-9.82737 19.65476,-10.58333 18.14287,-12.09524 16.63095,-12.8512 15.87499,-13.60713 15.875,-17.38691 c 0,0 8.21944,-10.16931 11.33928,-15.875 3.2551,-5.95306 7.55954,-18.89881 7.55954,-18.89881 l 4.5357,-19.65476 3.02381,-22.67857 1.51191,-21.92262 V 162.44048 L 428.62499,145.05357 423.33333,126.15476 415.77381,106.5 407.45833,89.113094 394.60715,70.214285 380.24405,52.071428 361.34524,28.636904 346.22618,10.494047 338.66666,0.66666665 335.64285,-12.184524 c 0,0 -0.70932,-7.1276 0,-10.583333 1.54342,-7.519449 12.09523,-32.505951 12.09523,-32.505951 l 10.58335,-24.946428 10.58332,-25.702384 16.63097,-9.07143" id="path1371-0" inkscape:connector-curvature="0" sodipodi:nodetypes="ccccsscccccccccsccsccccscccccccccccccccccccccccccccscccccccccccccccscccc" inkscape:export-xdpi="96" inkscape:export-ydpi="96"/>
  </g>
</svg>
