<?xml version="1.0" encoding="UTF-8" standalone="no"?>
<!-- Created with Inkscape (http://www.inkscape.org/) -->
<svg xmlns:dc="http://purl.org/dc/elements/1.1/" xmlns:cc="http://creativecommons.org/ns#" xmlns:rdf="http://www.w3.org/1999/02/22-rdf-syntax-ns#" xmlns:svg="http://www.w3.org/2000/svg" xmlns="http://www.w3.org/2000/svg" xmlns:xlink="http://www.w3.org/1999/xlink" xmlns:sodipodi="http://sodipodi.sourceforge.net/DTD/sodipodi-0.dtd" xmlns:inkscape="http://www.inkscape.org/namespaces/inkscape" width="210mm" height="297mm" viewBox="0 0 210 297" version="1.1" id="svg850" inkscape:version="0.92.3 (2405546, 2018-03-11)" sodipodi:docname="P05111308.svg">
  <defs id="defs844"/>
  <sodipodi:namedview id="base" pagecolor="#ffffff" bordercolor="#666666" borderopacity="1.0" inkscape:pageopacity="0.0" inkscape:pageshadow="2" inkscape:zoom="0.35" inkscape:cx="-75.714286" inkscape:cy="560" inkscape:document-units="mm" inkscape:current-layer="layer3" showgrid="false" inkscape:window-width="1496" inkscape:window-height="949" inkscape:window-x="65" inkscape:window-y="57" inkscape:window-maximized="0"/>
  <metadata id="metadata847">
    <rdf:RDF>
      <cc:Work rdf:about="">
        <dc:format>image/svg+xml</dc:format>
        <dc:type rdf:resource="http://purl.org/dc/dcmitype/StillImage"/>
        <dc:title/>
      </cc:Work>
    </rdf:RDF>
  </metadata>
  <g inkscape:groupmode="layer" id="layer3" inkscape:label="trace">
    <path style="fill:#000000;stroke:none;stroke-width:5;stroke-linecap:butt;stroke-linejoin:miter;stroke-miterlimit:4;stroke-dasharray:none;stroke-opacity:1" d="m 202.59524,-127.84524 -6.80358,7.55953 -2.26785,1.5119 -10.58334,18.898813 -6.80357,18.142854 -8.31547,18.142858 -6.04762,15.119048 c 0,0 -0.6298,5.030259 -0.75595,7.559524 -0.10042,2.01337 -0.46315,4.085672 0,6.047618 0.64728,2.741903 3.77976,7.559524 3.77976,7.559524 l 3.77976,6.047619 12.09524,10.583333 24.94643,24.190476 15.875,16.630953 15.11904,18.898809 16.63096,21.166666 12.85119,21.166667 12.09524,21.166668 8.31546,20.41071 6.04763,20.41072 2.26785,15.11904 2.26785,19.65476 0.75597,18.14286 -3.02382,19.65476 -3.77976,17.38691 -3.02381,12.85119 -6.80358,16.63095 c 0,0 -7.1062,12.4034 -11.33927,18.14285 -4.34779,5.89499 -14.3631,16.63096 -14.3631,16.63096 l -17.3869,18.14285 -15.875,15.11906 -18.89881,15.11903 -16.63095,12.85121 -21.16667,15.11904 -15.875,8.31548 -18.89881,10.58333 -20.41071,9.07143 -20.410718,8.31548 -21.166666,5.29167 -22.678572,3.77976 -20.410713,2.26784 -21.1666668,1.51191 -19.6547612,0.75594 H -33.261905 -56.69643 l -21.166667,-1.51189 -20.410718,-0.75596 -23.434525,-3.77975 -20.41071,-5.29167 -15.87501,-4.53571 -21.16667,-7.55953 -19.65476,-7.55952 -23.43452,-10.58334 -18.14286,-10.58334 -18.89881,-12.85117 -16.63095,-12.85121 -18.89881,-15.11903 -15.87501,-15.11906 -17.38688,-18.14285 -14.36312,-16.63097 c 0,0 -8.08747,-11.79572 -11.33927,-18.14285 -2.73106,-5.33071 -6.80358,-16.63094 -6.80358,-16.63094 l -3.02379,-12.85121 -3.77978,-17.38691 -3.02382,-19.65476 0.75597,-18.14285 2.26785,-19.65475 2.26785,-15.11904 6.04763,-20.41073 6.80356,-20.41071 9.82738,-24.190477 12.85121,-22.678574 9.07141,-15.874994 14.3631,-21.922619 15.875,-18.1428549 27.21429,-24.1904771 v 0 l 11.33928,-12.095239 c 0,0 8.11522,-11.449368 9.07144,-18.142857 0.79684,-5.577906 -3.02382,-16.630951 -3.02382,-16.630951 v 0 0 l -6.80356,-15.875003 -9.82738,-16.630955 -11.33929,-21.922619 -16.63096,-12.85119 v 0" id="path1407" inkscape:connector-curvature="0" sodipodi:nodetypes="cccccccssccccccccccccccccccsccccccccccccccccccccccccccccccccscccccccccccccccccscccccccc" inkscape:export-xdpi="96" inkscape:export-ydpi="96"/>
  </g>
</svg>
