<?xml version="1.0" encoding="UTF-8" standalone="no"?>
<!-- Created with Inkscape (http://www.inkscape.org/) -->
<svg xmlns:dc="http://purl.org/dc/elements/1.1/" xmlns:cc="http://creativecommons.org/ns#" xmlns:rdf="http://www.w3.org/1999/02/22-rdf-syntax-ns#" xmlns:svg="http://www.w3.org/2000/svg" xmlns="http://www.w3.org/2000/svg" xmlns:xlink="http://www.w3.org/1999/xlink" xmlns:sodipodi="http://sodipodi.sourceforge.net/DTD/sodipodi-0.dtd" xmlns:inkscape="http://www.inkscape.org/namespaces/inkscape" width="210mm" height="297mm" viewBox="0 0 210 297" version="1.1" id="svg8" inkscape:version="0.92.3 (2405546, 2018-03-11)" sodipodi:docname="P05311065.svg">
  <defs id="defs2"/>
  <sodipodi:namedview id="base" pagecolor="#ffffff" bordercolor="#666666" borderopacity="1.0" inkscape:pageopacity="0.0" inkscape:pageshadow="2" inkscape:zoom="0.35" inkscape:cx="-75.714286" inkscape:cy="560" inkscape:document-units="mm" inkscape:current-layer="layer2" showgrid="false" inkscape:window-width="1410" inkscape:window-height="964" inkscape:window-x="69" inkscape:window-y="34" inkscape:window-maximized="0"/>
  <metadata id="metadata5">
    <rdf:RDF>
      <cc:Work rdf:about="">
        <dc:format>image/svg+xml</dc:format>
        <dc:type rdf:resource="http://purl.org/dc/dcmitype/StillImage"/>
        <dc:title/>
      </cc:Work>
    </rdf:RDF>
  </metadata>
  <g inkscape:groupmode="layer" id="layer2" inkscape:label="trace">
    <path style="fill:#000000;stroke:none;stroke-width:5;stroke-linecap:butt;stroke-linejoin:miter;stroke-miterlimit:4;stroke-dasharray:none;stroke-opacity:1" d="m 246.44047,-125.57738 -9.82738,7.55953 c 0,0 -1.28412,0.83656 -1.5119,1.5119 -4.26738,12.65214 -11.72417,37.055485 -15.49702,44.601189 l -10.96132,21.922618 c 0,0 -1.25746,3.474926 -1.5119,5.291666 -0.24465,1.74684 0,5.291667 0,5.291667 l 3.77976,4.535715 8.31548,6.047618 11.33928,9.827382 12.85119,13.6071426 12.09524,14.363095 11.33928,15.1190474 8.31548,12.85119 9.8274,15.875 7.55951,16.630954 5.29167,15.119045 5.29166,17.386901 3.77976,19.65477 3.02382,21.92262 1.51191,16.63095 v 18.14285 l -1.51191,15.875 -2.26788,12.8512 -4.5357,14.36309 -7.55951,18.14286 -10.58333,19.65476 -11.33931,18.8988 -12.85118,16.63097 -13.60715,16.63094 -11.33928,11.33928 -12.85119,11.3393 -18.14286,14.36309 -14.36309,10.58333 -17.38691,10.58333 -18.14285,9.8274 -19.65476,9.07142 -19.65477,8.31547 c -6.2996,2.01587 -8.06349,4.03174 -14.36309,6.04761 -8.306141,2.65796 -10.66084,4.59563 -18.898811,7.55954 -4.349421,1.56486 -17.134274,5.29188 -24.946429,7.55952 l -23.434522,3.77975 C 24.442461,423.49602 20.914683,422.2361 11.339286,424 l -24.946428,0.75595 -24.94642,-0.75594 c -9.732043,-0.29491 -13.074545,-0.66721 -22.67857,-2.26788 L -83.9107,417.95237 c -7.81216,-2.26764 -16.061293,-4.48274 -20.41071,-6.04761 -8.23797,-2.96392 -14.37244,-4.90157 -22.67858,-7.55955 -6.2996,-2.01586 -11.08729,-4.78767 -17.38689,-6.80355 l -19.65477,-8.31546 -18.14286,-9.82738 -18.14285,-9.82739 -17.38691,-10.58333 -14.36309,-10.58334 -18.14286,-14.36309 -12.85119,-11.3393 -11.33928,-11.33927 -14.3631,-15.11904 -11.33929,-14.36311 -9.07144,-12.8512 -10.58333,-16.63095 -7.55953,-18.89881 -6.80356,-18.14285 -3.77975,-20.4107 -2.26789,-18.14288 -1.5119,-15.875 1.51191,-15.87499 3.77977,-24.94642 4.53572,-18.14287 5.29166,-18.142852 5.29167,-15.11905 6.80356,-16.63095 7.55954,-15.119048 8.31549,-14.363094 9.07142,-13.607146 12.09524,-16.6309472 14.36309,-14.3631028 c 7.55595,-6.058091 14.2347,-13.295937 15.875,-21.166662 0.72498,-3.478684 -10.6803,-20.639081 -12.09523,-24.946425 -1.49431,-4.548959 -4.7877,-11.770882 -7.55953,-21.166668 0,0 -4.06071,-17.762715 -9.07142,-22.678565 -3.95835,-3.88341 -13.60715,-13.15591 -13.60715,-14.3631" id="path827" inkscape:connector-curvature="0" sodipodi:nodetypes="ccsscaccccccccccccccccccccccccccccccccssccccsscsscccccccccccccccccccccccccccccsscsc" inkscape:export-xdpi="96" inkscape:export-ydpi="96"/>
  </g>
</svg>
