<?xml version="1.0" encoding="UTF-8" standalone="no"?>
<!-- Created with Inkscape (http://www.inkscape.org/) -->
<svg xmlns:dc="http://purl.org/dc/elements/1.1/" xmlns:cc="http://creativecommons.org/ns#" xmlns:rdf="http://www.w3.org/1999/02/22-rdf-syntax-ns#" xmlns:svg="http://www.w3.org/2000/svg" xmlns="http://www.w3.org/2000/svg" xmlns:xlink="http://www.w3.org/1999/xlink" xmlns:sodipodi="http://sodipodi.sourceforge.net/DTD/sodipodi-0.dtd" xmlns:inkscape="http://www.inkscape.org/namespaces/inkscape" width="210mm" height="297mm" viewBox="0 0 210 297" version="1.1" id="svg8" inkscape:version="0.92.3 (2405546, 2018-03-11)" sodipodi:docname="P04004145.svg">
  <defs id="defs2"/>
  <sodipodi:namedview id="base" pagecolor="#ffffff" bordercolor="#666666" borderopacity="1.0" inkscape:pageopacity="0.0" inkscape:pageshadow="2" inkscape:zoom="0.35" inkscape:cx="246.5466" inkscape:cy="522.1763" inkscape:document-units="mm" inkscape:current-layer="layer2" showgrid="false" inkscape:window-width="1487" inkscape:window-height="1008" inkscape:window-x="170" inkscape:window-y="33" inkscape:window-maximized="0"/>
  <metadata id="metadata5">
    <rdf:RDF>
      <cc:Work rdf:about="">
        <dc:format>image/svg+xml</dc:format>
        <dc:type rdf:resource="http://purl.org/dc/dcmitype/StillImage"/>
        <dc:title/>
      </cc:Work>
    </rdf:RDF>
  </metadata>
  <g inkscape:groupmode="layer" id="layer2" inkscape:label="trace" style="display:inline">
    <path style="fill:#000000;stroke:none;stroke-width:5;stroke-linecap:butt;stroke-linejoin:miter;stroke-miterlimit:4;stroke-dasharray:none;stroke-opacity:1" d="m -129.26785,-138.42858 7.5595,18.89882 9.8274,18.14285 9.07141,16.630954 8.315477,13.607141 c 0,0 6.940607,8.988285 7.559532,14.363098 0.685192,5.950273 -0.866043,12.653116 -4.535715,17.386904 -3.178966,4.10079 -13.607144,7.559522 -13.607144,7.559522 v 0 l -13.60713,7.559535 -12.85119,9.071428 -14.36312,11.3392687 -15.11905,12.8512085 -12.85118,12.8511758 -12.09524,15.875016 -10.58335,15.11904 -10.58332,18.898814 c -12.85118,27.214295 -18.14285,42.333345 -18.14285,42.333345 l -5.29169,20.41071 -2.26785,17.38688 v 0 l -1.51189,17.38693 2.26784,19.65475 c 0,0 1.88405,12.38032 3.77976,19.65478 1.64971,6.33045 6.04762,17.38688 6.04762,17.38688 0,0 6.09572,13.73079 9.82741,19.65476 4.54464,7.21451 14.36308,21.16667 14.36308,21.16667 l 13.60714,16.63096 19.65478,20.41069 c 7.30754,6.5516 8.5106,7.88645 19.65475,18.14288 l 20.41074,14.3631 18.14283,11.33927 19.654762,11.33928 14.363106,7.55953 21.9226,9.8274 c 0,0 10.457085,4.14639 17.386919,6.80357 6.929834,2.65718 25.7023803,10.58333 25.7023803,10.58333 l 22.3046007,7.42218 c 0,0 10.115661,2.9742 24.190476,6.80357 14.074815,3.82937 10.355618,2.49457 20.028736,3.91709 v 0 0 0 0 l 22.678579,3.77978 15.875001,0.75594 h 10.58333 10.58333 l 9.07143,-0.75594 16.63095,-1.51191 12.85119,-2.26787 15.875,-4.5357 9.07143,-3.02382 14.3631,-6.04761 13.60714,-5.29166 22.67857,-9.07143 13.60714,-6.80357 22.67859,-10.58334 18.89879,-9.82739 13.60715,-8.31548 21.9226,-13.60713 15.875,-10.58333 12.85121,-10.58333 14.36309,-12.85121 14.36312,-15.87499 12.85117,-18.14286 9.07142,-17.38691 7.55955,-18.14285 3.77976,-11.33927 5.29166,-16.63097 2.26785,-16.63094 1.51191,-18.89882 -0.75594,-17.38691 V 135.2262 l -2.26788,-17.38691 -3.77975,-20.410722 -6.04761,-14.3631 -8.31549,-15.119042 -14.36309,-23.43453 -13.60714,-15.11904 -14.3631,-17.386913 -17.38692,-15.8749926 -14.36309,-12.0952394 -21.16667,-15.119045 c 0,0 -6.56098,-4.249791 -8.31548,-7.55953 -0.83453,-1.57428 -0.86666,-3.513313 -0.75594,-5.291665 0.17853,-2.867508 2.26785,-8.315474 2.26785,-8.315474 l 7.55951,-12.85119 6.04764,-12.09524 7.55951,-18.142857 8.31549,-18.89881 7.55951,-24.94643" id="path3769-2" inkscape:connector-curvature="0" sodipodi:nodetypes="cccccssccccccccccccccccscsccccccccczcczcccccccccccccccccccccccccccccccccccccccccccccsscccccc" inkscape:export-xdpi="96" inkscape:export-ydpi="96"/>
  </g>
</svg>
