<?xml version="1.0" encoding="UTF-8" standalone="no"?>
<!-- Created with Inkscape (http://www.inkscape.org/) -->
<svg xmlns:dc="http://purl.org/dc/elements/1.1/" xmlns:cc="http://creativecommons.org/ns#" xmlns:rdf="http://www.w3.org/1999/02/22-rdf-syntax-ns#" xmlns:svg="http://www.w3.org/2000/svg" xmlns="http://www.w3.org/2000/svg" xmlns:xlink="http://www.w3.org/1999/xlink" xmlns:sodipodi="http://sodipodi.sourceforge.net/DTD/sodipodi-0.dtd" xmlns:inkscape="http://www.inkscape.org/namespaces/inkscape" width="210mm" height="297mm" viewBox="0 0 210 297" version="1.1" id="svg8" inkscape:version="0.92.3 (2405546, 2018-03-11)" sodipodi:docname="P04202600.svg" inkscape:export-filename="D:\UW\2017_fifth\UW 2018WI\Pottery outline\P04202600.png" inkscape:export-xdpi="96" inkscape:export-ydpi="96">
  <defs id="defs2"/>
  <sodipodi:namedview id="base" pagecolor="#ffffff" bordercolor="#666666" borderopacity="1.0" inkscape:pageopacity="0.0" inkscape:pageshadow="2" inkscape:zoom="0.35" inkscape:cx="-75.714286" inkscape:cy="560" inkscape:document-units="mm" inkscape:current-layer="layer2" showgrid="false" inkscape:window-width="1424" inkscape:window-height="969" inkscape:window-x="49" inkscape:window-y="19" inkscape:window-maximized="0"/>
  <metadata id="metadata5">
    <rdf:RDF>
      <cc:Work rdf:about="">
        <dc:format>image/svg+xml</dc:format>
        <dc:type rdf:resource="http://purl.org/dc/dcmitype/StillImage"/>
        <dc:title/>
      </cc:Work>
    </rdf:RDF>
  </metadata>
  <g inkscape:groupmode="layer" id="layer2" inkscape:label="trace">
    <path style="fill:#000000;stroke:none;stroke-width:5;stroke-linecap:butt;stroke-linejoin:miter;stroke-miterlimit:4;stroke-dasharray:none;stroke-opacity:1" d="m 264.58333,-117.2619 -18.14286,21.166663 -11.33928,16.630952 -9.07143,15.875 -3.77976,12.095239 -2.26786,9.827381 0.75595,8.315476 2.26786,6.047618 6.04762,7.559524 11.33928,14.3630946 L 254,11.25 l 8.31547,12.85119 9.07144,15.874999 10.58333,18.898812 5.29166,15.119045 6.80358,20.410715 3.77976,18.898809 3.02382,18.89881 1.51188,15.875 v 15.11905 l -0.75594,16.63095 -3.02382,18.89881 -6.04761,21.16666 -6.04763,16.63096 -8.31546,16.63095 -9.07142,16.63094 -10.58334,18.14286 -10.58334,15.11906 -15.875,18.89881 -14.3631,15.11904 -14.36309,14.36311 -15.11905,14.36309 -13.60713,9.07142 -15.11907,9.07143 c 0,0 -15.26852,7.63426 -16.63095,8.31548 -1.36244,0.68122 -12.45488,6.16748 -18.8988,8.31546 l -20.41072,6.80358 -21.922613,6.04761 -21.922618,3.77976 -21.92262,3.02383 -21.922619,3.0238 -21.922619,1.5119 -18.142852,-1.5119 -20.410713,-1.5119 -18.14286,-3.02382 -18.142858,-3.02382 -21.166668,-4.5357 -20.41072,-6.80358 -21.16667,-9.07141 c 0,0 -12.96772,-5.67672 -19.65476,-9.07143 -6.68704,-3.39471 -20.41072,-11.3393 -20.41072,-11.3393 l -17.3869,-10.58332 -16.63095,-12.85119 -12.85119,-11.33929 -15.11905,-15.87499 -11.33928,-11.3393 -14.3631,-17.38691 -10.58335,-16.63096 -11.33927,-20.4107 -7.55951,-18.8988 -5.29168,-17.38692 -5.29166,-20.41071 -2.26786,-19.65477 0.75596,-18.8988 2.26786,-23.43454 3.77974,-22.67856 v 0 l 6.04762,-21.922619 6.04762,-20.41072 6.80358,-18.898802 16.63094,-30.238095 v 0 l 11.33929,-15.8749998 9.82739,-14.3631018 10.58333,-15.1190424 6.04762,-7.55953 2.26786,-6.04762 0.75595,-8.31547 -2.26786,-9.82738 -3.77976,-12.09524 -9.82738,-15.875 -10.58333,-15.119045 -21.16667,-22.678575" id="path827" inkscape:connector-curvature="0" sodipodi:nodetypes="cccccccccccccccccccccccccccccccccczcccccccccccccczcccccccccccccccccccccsccccccccccc" inkscape:export-xdpi="96" inkscape:export-ydpi="96"/>
  </g>
</svg>
