<?xml version="1.0" encoding="UTF-8" standalone="no"?>
<!-- Created with Inkscape (http://www.inkscape.org/) -->
<svg xmlns:dc="http://purl.org/dc/elements/1.1/" xmlns:cc="http://creativecommons.org/ns#" xmlns:rdf="http://www.w3.org/1999/02/22-rdf-syntax-ns#" xmlns:svg="http://www.w3.org/2000/svg" xmlns="http://www.w3.org/2000/svg" xmlns:xlink="http://www.w3.org/1999/xlink" xmlns:sodipodi="http://sodipodi.sourceforge.net/DTD/sodipodi-0.dtd" xmlns:inkscape="http://www.inkscape.org/namespaces/inkscape" width="210mm" height="297mm" viewBox="0 0 210 297" version="1.1" id="svg1394" inkscape:version="0.92.3 (2405546, 2018-03-11)" sodipodi:docname="P05310134.svg">
  <defs id="defs1388"/>
  <sodipodi:namedview id="base" pagecolor="#ffffff" bordercolor="#666666" borderopacity="1.0" inkscape:pageopacity="0.0" inkscape:pageshadow="2" inkscape:zoom="0.35" inkscape:cx="398.34731" inkscape:cy="560" inkscape:document-units="mm" inkscape:current-layer="layer3" showgrid="false" inkscape:window-width="1454" inkscape:window-height="945" inkscape:window-x="64" inkscape:window-y="44" inkscape:window-maximized="0"/>
  <metadata id="metadata1391">
    <rdf:RDF>
      <cc:Work rdf:about="">
        <dc:format>image/svg+xml</dc:format>
        <dc:type rdf:resource="http://purl.org/dc/dcmitype/StillImage"/>
        <dc:title/>
      </cc:Work>
    </rdf:RDF>
  </metadata>
  <g inkscape:groupmode="layer" id="layer3" inkscape:label="trace">
    <path style="fill:#000000;stroke:none;stroke-width:5;stroke-linecap:butt;stroke-linejoin:miter;stroke-miterlimit:4;stroke-dasharray:none;stroke-opacity:1" d="m 344.71427,-133.13691 -9.07142,11.33928 -17.38691,62.744052 -0.75594,5.291666 1.5119,5.291667 6.04761,6.047618 9.82739,6.803572 16.63095,14.363094 15.87499,13.6071432 15.11906,15.8749998 11.33928,12.85119 8.31548,14.363094 8.31549,15.875 8.31545,19.654763 6.80358,19.654761 3.77976,13.60714 5.29166,20.41072 4.53573,18.89881 2.26785,21.16666 0.75596,15.11905 -1.5119,18.89881 -3.02382,20.41071 -5.29167,17.38691 -6.0476,17.3869 -10.58334,19.65476 -8.31548,12.85121 -11.33928,15.11903 -13.60715,15.11906 -12.85118,11.33927 -12.85121,11.33929 -13.60714,11.3393 -15.11904,10.58333 -15.87499,9.07141 -18.14286,9.82738 -18.14287,9.07145 -17.3869,7.55951 -19.65476,8.31547 -19.65476,6.04762 -21.92262,4.53572 -20.41071,3.77976 -21.92262,2.26785 -21.92262,2.26788 -18.89881,0.75594 c 0,0 -7.04657,-1e-5 -10.58334,-1e-5 -3.53677,0 -10.58334,1e-5 -10.58334,1e-5 l -18.89881,-0.75595 -18.142858,-1.51192 -21.92262,-1.5119 -24.190472,-3.0238 -21.92263,-4.53573 -20.410712,-5.29168 -17.386903,-5.29165 -19.654757,-7.55951 -16.630966,-7.55955 -16.630952,-8.31546 -18.8988,-11.33928 -16.63095,-11.33929 -15.11904,-10.58335 -17.38694,-14.36308 -12.85118,-14.36309 -11.33929,-13.60715 -10.58333,-15.11903 -6.80357,-14.36312 -7.55952,-15.875 -7.55952,-19.65476 -6.80357,-19.65476 -3.02381,-20.4107 -0.75594,-17.38692 0.75595,-17.38691 3.02379,-16.63096 4.53573,-21.16665 6.04763,-18.89881 9.07142,-21.922627 6.80357,-16.63095 7.55951,-14.363093 7.55953,-15.119048 9.82739,-13.607148 10.58332,-15.8749892 14.36312,-15.875 c 5.29166,-4.5357168 6.80356,-7.5595288 12.09523,-12.0952448 l 14.36309,-12.095239 c 0,0 6.10396,-5.165223 9.07144,-9.827374 2.91456,-4.579023 7.55951,-13.607144 7.55951,-13.607144 -1.00793,-7.811506 -7.55952,-37.041663 -7.55952,-37.041663 l -8.31547,-25.7024 -10.58333,-14.36308" id="path1408" inkscape:connector-curvature="0" sodipodi:nodetypes="cccccccccccccccccccccccccccccccccccccccccccscccccccccccccccccccccccccccccccccccccscccc" inkscape:export-xdpi="96" inkscape:export-ydpi="96"/>
  </g>
</svg>
